<?xml version="1.0" encoding="UTF-8"?>
<svg id="Layer_1" xmlns="http://www.w3.org/2000/svg" version="1.1" viewBox="0 0 32 40">
  <!-- Generator: Adobe Illustrator 29.7.1, SVG Export Plug-In . SVG Version: 2.1.1 Build 8)  -->
  <defs>
    <style>
      .st0 {
        fill: #dfdfdf;
      }
    </style>
  </defs>
  <path class="st0" d="M16,9c-3.86,0-7,3.14-7,7s3.14,7,7,7,7-3.14,7-7-3.14-7-7-7ZM16,21c-2.76,0-5-2.24-5-5s2.24-5,5-5,5,2.24,5,5-2.24,5-5,5Z"/>
  <path class="st0" d="M16,1C7.73,1,1,7.72,1,15.99c-.06,12.43,13.83,22.4,14.42,22.82.17.13.37.19.58.19s.41-.06.58-.19c.59-.42,14.48-10.39,14.42-22.8C31,7.73,24.27,1,16,1ZM16.63,36.25l-.63.51-.63-.51c-3.73-3.03-12.41-11.08-12.37-20.25,0-7.17,5.83-13,13-13s13,5.84,13,13.01c.04,9.18-8.64,17.21-12.37,20.24Z"/>
</svg>