<?xml version="1.0" encoding="UTF-8"?>
<svg id="Layer_1" xmlns="http://www.w3.org/2000/svg" version="1.1" viewBox="0 0 40 37.84">
  <!-- Generator: Adobe Illustrator 29.7.1, SVG Export Plug-In . SVG Version: 2.1.1 Build 8)  -->
  <defs>
    <style>
      .st0 {
        fill: #dfdfdf;
      }
    </style>
  </defs>
  <path class="st0" d="M38.68,3.61c-.51-.99-1.3-1.78-2.3-2.29-1.12-.57-2.42-.57-4.78-.57H8.4c-2.36,0-3.66,0-4.78.57-1,.51-1.79,1.3-2.3,2.29-.57,1.12-.57,2.42-.57,4.78v15.21c0,2.36,0,3.66.57,4.78.51.99,1.3,1.79,2.29,2.29,1.12.58,2.42.58,4.78.58h17.36c.75,0,1.12,0,1.4.05.24.05.47.13.69.25.25.12.51.33,1.13.82l2.87,2.3.2.16c1.88,1.5,2.82,2.26,3.96,2.26.48,0,.97-.11,1.4-.32.44-.21.84-.53,1.14-.91.71-.88.71-2.02.71-4.52V8.4c0-2.36,0-3.66-.57-4.79ZM36.75,31.34c0,.99,0,1.92-.06,2.46l-.13,1.21-1.02-.65c-.46-.3-1.21-.9-1.94-1.48l-.02-.02-3.07-2.45c-.63-.51-1.05-.84-1.53-1.09-.41-.21-.86-.37-1.33-.47-.52-.1-1.01-.1-1.9-.1H8.39c-2.12,0-3.08-.02-3.64-.3-.52-.27-.94-.68-1.2-1.21-.29-.56-.3-1.52-.3-3.64v-15.21c0-2.12.01-3.08.3-3.64.26-.52.69-.94,1.2-1.2.56-.29,1.53-.3,3.65-.3h23.2c2.12,0,3.08.01,3.65.3.52.26.93.68,1.2,1.2.29.56.3,1.53.3,3.65v22.94Z"/>
</svg>