<?xml version="1.0" encoding="UTF-8"?>
<svg id="Layer_1" xmlns="http://www.w3.org/2000/svg" version="1.1" viewBox="0 0 40.02 39.35">
  <!-- Generator: Adobe Illustrator 29.7.1, SVG Export Plug-In . SVG Version: 2.1.1 Build 8)  -->
  <defs>
    <style>
      .st0 {
        fill: #dfdfdf;
      }
    </style>
  </defs>
  <path class="st0" d="M38.08,37.19c0,.29-.11.56-.32.77-.41.41-1.13.41-1.55,0l-6.2-6.21-.53-.53-.54-.53c-.19.16-.38.32-.57.48-.2.16-.39.31-.6.46-2.79,2.04-6.22,3.23-9.89,3.23-9.25,0-16.77-7.53-16.77-16.78S8.63,1.31,17.88,1.31c1.35,0,2.69.16,3.99.48-.66.54-1.42,1.2-2.08,1.83-.64-.09-1.28-.13-1.91-.13-8.04,0-14.58,6.55-14.58,14.59s6.54,14.59,14.58,14.59c3.25,0,6.28-1.09,8.72-2.93.26-.19.5-.39.74-.59.58-.5,1.12-1.04,1.62-1.62.21-.24.4-.49.59-.74,1.52-2.02,2.53-4.44,2.83-7.06.7.42,1.39.78,2.06,1.07-.44,2.66-1.49,5.09-3,7.16-.15.2-.3.4-.46.6-.16.2-.32.39-.48.58l.53.53.52.53,6.21,6.21c.21.21.32.48.32.78Z"/>
  <path class="st0" d="M35.79,9.39l-2.89,2.1,1.1,3.39c.21.64,0,1.31-.55,1.7-.27.2-.58.29-.89.29s-.62-.1-.89-.29l-2.89-2.1-2.89,2.1c-.53.39-1.24.39-1.78,0-.54-.39-.76-1.06-.55-1.7l1.1-3.39-2.89-2.1c-.54-.4-.76-1.07-.55-1.7.2-.64.77-1.05,1.44-1.05h3.58l1.1-3.4c.2-.63.77-1.05,1.44-1.05s1.24.42,1.45,1.05l1.09,3.4h3.58c.67,0,1.24.41,1.44,1.05.2.63,0,1.3-.55,1.7Z"/>
  <path class="st0" d="M18.74,10.21c0,.29-.13.57-.34.77-.21.2-.51.3-.78.3-.83-.02-1.64.12-2.42.42-.77.3-1.46.74-2.07,1.32-.6.57-1.08,1.24-1.41,2-.34.76-.52,1.56-.54,2.39,0,.29-.12.56-.34.77-.21.2-.49.29-.78.3-.29-.01-.56-.13-.77-.34-.2-.21-.3-.49-.3-.78.03-1.12.27-2.21.73-3.23.45-1.02,1.07-1.91,1.91-2.71.81-.77,1.74-1.36,2.78-1.77.98-.37,2-.56,3.04-.56h.22c.3.01.57.13.77.34.2.21.31.49.3.78Z"/>
</svg>