<?xml version="1.0" encoding="UTF-8"?>
<svg id="Layer_1" xmlns="http://www.w3.org/2000/svg" version="1.1" viewBox="0 0 37.32 33.68">
  <!-- Generator: Adobe Illustrator 29.7.1, SVG Export Plug-In . SVG Version: 2.1.1 Build 8)  -->
  <defs>
    <style>
      .st0 {
        fill: #dfdfdf;
      }
    </style>
  </defs>
  <path class="st0" d="M14.06,10.08c-.61-.91-1.47-1.61-2.47-2.03-1.01-.41-2.11-.52-3.18-.31s-2.05.74-2.82,1.5c-.77.77-1.29,1.75-1.5,2.82-.21,1.07-.11,2.17.31,3.18.42,1,1.12,1.86,2.03,2.47.9.6,1.96.92,3.05.92,1.46,0,2.86-.58,3.89-1.61,1.03-1.03,1.61-2.43,1.61-3.89,0-1.08-.32-2.15-.92-3.05ZM12.34,15.04c-.37.56-.91,1.01-1.55,1.27-.62.26-1.31.32-1.99.19-.65-.13-1.27-.45-1.74-.94-.48-.49-.8-1.08-.95-1.76-.13-.65-.06-1.35.2-1.98.27-.62.7-1.16,1.26-1.54.58-.37,1.23-.58,1.91-.58.92,0,1.8.36,2.43,1.01.64.64,1.01,1.52,1.01,2.42,0,.69-.2,1.35-.58,1.91Z"/>
  <path class="st0" d="M14.06,10.08c-.61-.91-1.47-1.61-2.47-2.03-1.01-.41-2.11-.52-3.18-.31s-2.05.74-2.82,1.5c-.77.77-1.29,1.75-1.5,2.82-.21,1.07-.11,2.17.31,3.18.42,1,1.12,1.86,2.03,2.47.9.6,1.96.92,3.05.92,1.46,0,2.86-.58,3.89-1.61,1.03-1.03,1.61-2.43,1.61-3.89,0-1.08-.32-2.15-.92-3.05ZM12.34,15.04c-.37.56-.91,1.01-1.55,1.27-.62.26-1.31.32-1.99.19-.65-.13-1.27-.45-1.74-.94-.48-.49-.8-1.08-.95-1.76-.13-.65-.06-1.35.2-1.98.27-.62.7-1.16,1.26-1.54.58-.37,1.23-.58,1.91-.58.92,0,1.8.36,2.43,1.01.64.64,1.01,1.52,1.01,2.42,0,.69-.2,1.35-.58,1.91Z"/>
  <path class="st0" d="M30.26,3.56c-.82-1.21-1.97-2.15-3.3-2.71-1.35-.54-2.81-.69-4.24-.41-1.43.28-2.74.99-3.77,2-1.02,1.03-1.72,2.34-2,3.76-.28,1.43-.14,2.9.42,4.25.56,1.33,1.49,2.48,2.71,3.29,1.2.8,2.61,1.23,4.07,1.23,1.94,0,3.81-.77,5.19-2.15s2.14-3.24,2.14-5.19c0-1.44-.42-2.87-1.22-4.07ZM28.56,10.58c-.56.87-1.4,1.57-2.39,1.96-.95.41-2.02.5-3.07.3-1.01-.21-1.97-.69-2.69-1.46-.74-.75-1.24-1.67-1.47-2.71-.21-1.01-.09-2.09.31-3.07.42-.95,1.08-1.78,1.95-2.37.89-.58,1.9-.91,2.95-.91,1.41,0,2.78.56,3.75,1.57.99.99,1.57,2.35,1.57,3.74,0,1.06-.32,2.08-.91,2.95Z"/>
  <path class="st0" d="M30.26,3.56c-.82-1.21-1.97-2.15-3.3-2.71-1.35-.54-2.81-.69-4.24-.41-1.43.28-2.74.99-3.77,2-1.02,1.03-1.72,2.34-2,3.76-.28,1.43-.14,2.9.42,4.25.56,1.33,1.49,2.48,2.71,3.29,1.2.8,2.61,1.23,4.07,1.23,1.94,0,3.81-.77,5.19-2.15s2.14-3.24,2.14-5.19c0-1.44-.42-2.87-1.22-4.07ZM28.56,10.58c-.56.87-1.4,1.57-2.39,1.96-.95.41-2.02.5-3.07.3-1.01-.21-1.97-.69-2.69-1.46-.74-.75-1.24-1.67-1.47-2.71-.21-1.01-.09-2.09.31-3.07.42-.95,1.08-1.78,1.95-2.37.89-.58,1.9-.91,2.95-.91,1.41,0,2.78.56,3.75,1.57.99.99,1.57,2.35,1.57,3.74,0,1.06-.32,2.08-.91,2.95Z"/>
  <path class="st0" d="M13.09,21.77c-.51.58-1.11,1.34-1.6,2.22-.43-.15-.89-.26-1.36-.32-1.11-.12-2.24.08-3.26.57-1.03.5-1.88,1.26-2.46,2.21-.61.96-.93,2.06-.93,3.18,0,.36-.14.7-.38.94-.53.51-1.38.51-1.9.01-.24-.25-.38-.59-.38-.95,0-2.32.9-4.49,2.53-6.13,1.64-1.63,3.81-2.53,6.13-2.53,1.25,0,2.49.28,3.61.8Z"/>
  <path class="st0" d="M36.48,31.47c0,.35-.14.69-.38.94-.51.5-1.39.5-1.9,0-.24-.25-.38-.59-.38-.94,0-2.55-1.03-5.04-2.84-6.83-1.83-1.83-4.25-2.84-6.83-2.84s-5,1.01-6.83,2.84c-1.81,1.79-2.84,4.28-2.84,6.83,0,.35-.14.69-.38.94-.51.5-1.39.5-1.9,0-.24-.25-.38-.59-.38-.94-.01-2.06.51-4.1,1.52-5.93.74-1.6,2.06-2.76,2.1-2.8,1.73-1.72,3.92-2.88,6.32-3.35,2.38-.48,4.84-.24,7.11.7,2.26.94,4.17,2.5,5.53,4.54,1.36,2.03,2.08,4.4,2.08,6.84Z"/>
</svg>