<?xml version="1.0" encoding="UTF-8"?>
<svg id="Layer_1" xmlns="http://www.w3.org/2000/svg" version="1.1" viewBox="0 0 31.5 35">
  <!-- Generator: Adobe Illustrator 29.7.1, SVG Export Plug-In . SVG Version: 2.1.1 Build 8)  -->
  <defs>
    <style>
      .st0 {
        fill: #dfdfdf;
      }
    </style>
  </defs>
  <path class="st0" d="M30.15,15.25c-.4-.68-.96-1.25-1.64-1.64L7.51,1.37c-.68-.4-1.46-.62-2.25-.62h-.05c-.77,0-1.51.2-2.2.6-.69.39-1.26.96-1.66,1.65-.4.68-.6,1.46-.6,2.25v24.5c0,.79.2,1.57.6,2.26.4.68.97,1.25,1.65,1.64.69.4,1.46.6,2.25.6h.01c.79,0,1.57-.21,2.25-.61l21-12.25c.68-.4,1.25-.97,1.64-1.65s.6-1.46.6-2.24-.21-1.56-.6-2.25ZM28.42,18.75c-.22.37-.54.69-.92.91L6.5,31.91c-.37.22-.81.34-1.25.34s-.87-.11-1.25-.33c-.38-.22-.7-.54-.92-.92-.22-.37-.33-.81-.33-1.25V5.25c0-.44.11-.87.33-1.25.22-.38.54-.7.92-.92.38-.22.81-.33,1.24-.33h.01c.45,0,.88.12,1.26.34l21,12.25c.37.22.68.53.9.91.22.38.34.82.34,1.25s-.12.86-.33,1.25Z"/>
</svg>