<?xml version="1.0" encoding="UTF-8"?>
<svg id="Layer_1" xmlns="http://www.w3.org/2000/svg" version="1.1" viewBox="0 0 306 279.53">
  <!-- Generator: Adobe Illustrator 29.7.1, SVG Export Plug-In . SVG Version: 2.1.1 Build 8)  -->
  <defs>
    <style>
      .st0 {
        fill: none;
        stroke: #fff;
        stroke-linecap: round;
        stroke-miterlimit: 10;
        stroke-width: 21px;
      }
    </style>
  </defs>
  <path class="st0" d="M92.56,44.32l-35.76,6.59c-9.74,1.79-18.36,8.68-22.53,17.63s-2.06,17.74-.96,26.69,2.14,17.6,3.19,26.4c2.56,21.49,5.08,42.98,7.59,64.47,1.22,10.46,1.28,21.81,3.67,32.05,1.9,8.13,6.87,15.13,13.98,19.55,5.74,3.56,12.41,5.36,19.07,6.15"/>
  <path class="st0" d="M260.48,154.44c-10.63-8.93-26.12-10.27-38.59-4.76-7.4,3.27-14.03,8.33-19.44,14.31-3.42,3.78-5.96,8.15-9.12,12.12-4.82,6.05-10.76,11.91-17.97,14.99-16.44,7.02-28.07-8.12-34.33-21.49,0-.35-12.05-21.88-12.05-21.88"/>
  <circle class="st0" cx="185.44" cy="100.44" r="9.18"/>
  <rect class="st0" x="125.41" y="34.46" width="138.42" height="210.61" rx="29.03" ry="29.03" transform="translate(21.53 -25.92) rotate(8.06)"/>
</svg>